<svg xmlns="http://www.w3.org/2000/svg" viewBox="0 0 100 100" width="100" height="100">
  <rect width="100" height="100" rx="16" fill="#009999"/>
  <!-- FNB iconic Acacia tree & sunrise symbol -->
  <!-- Sunrise orange disc -->
  <circle cx="50" cy="50" r="32" fill="#E86C1F"/>
  <!-- Turquoise acacia tree canopy silhouette -->
  <path d="M50 78 L50 60 C46 59 40 56 36 50 C30 50 24 45 25 38 C26 32 32 30 38 32 C41 26 48 24 55 26 C62 24 70 28 72 35 C78 35 83 40 81 46 C80 52 74 55 68 54 C64 58 58 60 52 60 L52 78 Z" fill="#009999"/>
  <!-- Ground arc -->
  <path d="M22 78 C35 74 65 74 78 78 L78 84 L22 84 Z" fill="#009999"/>
</svg>
